<?xml version="1.0" encoding="UTF-8"?>
<svg id="Layer_1" data-name="Layer 1" xmlns="http://www.w3.org/2000/svg" width="34.4" height="25.37" viewBox="0 0 34.4 25.37">
  <defs>
    <style>
      .cls-1 {
        fill: #fff;
        stroke-width: 0px;
      }
    </style>
  </defs>
  <path class="cls-1" d="m29.63,2.81C26.65.42,21.95.02,21.74,0c-.31-.03-.61.15-.74.44-.01.02-.11.25-.23.62,1.97.33,4.39,1,6.58,2.36.35.22.46.68.24,1.03-.14.23-.39.36-.64.36-.13,0-.27-.04-.39-.11-3.76-2.33-8.46-2.45-9.37-2.45s-5.61.12-9.37,2.45c-.35.22-.81.11-1.03-.24-.22-.35-.11-.81.24-1.03,2.19-1.35,4.61-2.02,6.58-2.35-.11-.37-.22-.6-.22-.62-.13-.29-.43-.47-.74-.44-.2.01-4.91.42-7.93,2.84C3.15,4.3,0,12.8,0,20.15c0,.13.04.26.1.37,2.17,3.81,8.11,4.81,9.46,4.85h.02c.24,0,.46-.11.6-.31l1.37-1.88c-3.69-.95-5.57-2.57-5.68-2.66-.31-.27-.34-.74-.06-1.05.27-.31.74-.34,1.05-.07.04.04,3.51,2.98,10.34,2.98s10.31-2.95,10.34-2.98c.31-.27.78-.24,1.05.07.27.31.24.78-.07,1.05-.11.1-1.99,1.71-5.68,2.66l1.37,1.88c.14.19.37.31.6.31h.02c1.35-.04,7.29-1.04,9.46-4.85.06-.11.1-.24.1-.37,0-7.35-3.15-15.85-4.77-17.34Zm-17.29,14.35c-1.45,0-2.62-1.34-2.62-2.98s1.17-2.98,2.62-2.98,2.62,1.34,2.62,2.98-1.17,2.98-2.62,2.98Zm9.72,0c-1.45,0-2.62-1.34-2.62-2.98s1.17-2.98,2.62-2.98,2.62,1.34,2.62,2.98-1.17,2.98-2.62,2.98Z"/>
</svg>