<?xml version="1.0" encoding="UTF-8"?>
<svg id="Layer_1" data-name="Layer 1" xmlns="http://www.w3.org/2000/svg" width="26.12" height="26.07" viewBox="0 0 26.12 26.07">
  <defs>
    <style>
      .cls-1 {
        fill: #fff;
        stroke-width: 0px;
      }
    </style>
  </defs>
  <path class="cls-1" d="m18.54,26.07H7.58c-4.18,0-7.58-3.39-7.58-7.56V7.56C0,3.39,3.4,0,7.58,0h10.96c4.18,0,7.58,3.39,7.58,7.56v10.94c0,4.17-3.4,7.56-7.58,7.56ZM7.58,2c-3.08,0-5.58,2.5-5.58,5.56v10.94c0,3.07,2.5,5.56,5.58,5.56h10.96c3.08,0,5.58-2.5,5.58-5.56V7.56c0-3.07-2.5-5.56-5.58-5.56H7.58Z"/>
  <path class="cls-1" d="m13.06,20.05c-3.88,0-7.03-3.15-7.03-7.02s3.15-7.02,7.03-7.02,7.03,3.15,7.03,7.02-3.15,7.02-7.03,7.02Zm0-12.03c-2.77,0-5.03,2.25-5.03,5.02s2.26,5.02,5.03,5.02,5.03-2.25,5.03-5.02-2.26-5.02-5.03-5.02Z"/>
  <path class="cls-1" d="m20.18,7.52c-.88,0-1.6-.71-1.6-1.59s.72-1.59,1.6-1.59,1.6.71,1.6,1.59-.72,1.59-1.6,1.59Zm0-2.19c-.33,0-.6.27-.6.59s.27.59.6.59.6-.27.6-.59-.27-.59-.6-.59Z"/>
</svg>