<?xml version="1.0" encoding="UTF-8"?>
<svg id="Layer_1" data-name="Layer 1" xmlns="http://www.w3.org/2000/svg" width="26.22" height="25.03" viewBox="0 0 26.22 25.03">
  <defs>
    <style>
      .cls-1 {
        fill: #fff;
        stroke-width: 0px;
      }
    </style>
  </defs>
  <path class="cls-1" d="m5.7,25.03H0V7.96h5.7v17.07ZM2.85,5.69c-1.58,0-2.85-1.28-2.85-2.85S1.28,0,2.85,0s2.85,1.28,2.85,2.84-1.28,2.85-2.85,2.85Zm23.37,19.34h-5.48v-8.31c0-1.98-.04-4.53-2.85-4.53s-3.29,2.16-3.29,4.38v8.45h-5.48V7.95h5.26v2.33h.07c.73-1.34,2.52-2.76,5.19-2.76,5.55,0,6.58,3.54,6.58,8.14v9.37Z"/>
</svg>