<svg width="290" height="85" viewBox="0 0 290 85" fill="none" xmlns="http://www.w3.org/2000/svg">
<path d="M215.783 61.8927C234.266 43.6829 251.931 26.2843 270.238 8.24992H219.158V0H290C284.206 5.92621 278.618 11.8086 272.854 17.5229C258.769 31.4871 244.669 45.4367 230.401 59.2109C228.853 60.7016 226.252 61.3812 224.024 61.805C221.715 62.2434 219.253 61.9 215.783 61.9V61.8927Z" fill="#FBBA3A"/>
<path d="M289.627 24.1358C272.058 41.4468 254.488 58.7504 236.224 76.741H287.392V84.9982H216.616C217.537 83.8729 218.18 82.9302 218.969 82.1484C238.072 63.2152 257.22 44.3186 276.295 25.3562C280.305 21.3737 284.974 23.9605 289.306 23.2663C289.415 23.5586 289.525 23.8436 289.627 24.1358Z" fill="#FBBA3A"/>
<path d="M191.713 28.1172H211.33V34.6888H198.284V67.3506H191.713V34.6888V28.1172Z" fill="#FBBA3A"/>
<path d="M168.48 65.7812C166.077 64.7513 164.017 63.3291 162.203 61.5636C160.437 59.7491 159.015 57.6893 157.985 55.2863C156.955 52.8833 156.416 50.3821 156.416 47.7339C156.416 45.0366 156.955 42.4864 157.985 40.0834C159.015 37.7294 160.437 35.6696 162.203 33.9041C164.017 32.0896 166.077 30.7164 168.48 29.6865C170.834 28.6566 173.384 28.1172 176.082 28.1172C178.779 28.1172 181.329 28.6076 183.683 29.6375C186.037 30.6674 188.146 32.0896 189.961 33.9041L185.302 38.465C182.702 35.9148 179.613 34.6888 176.082 34.6888C174.267 34.6888 172.551 35.0321 170.981 35.6696C169.363 36.3562 167.99 37.288 166.813 38.514C165.636 39.691 164.704 41.0642 164.017 42.6335C163.331 44.2519 162.988 45.9193 162.988 47.7339C162.988 49.5484 163.331 51.2158 164.017 52.8342C164.704 54.4035 165.636 55.7767 166.862 56.9537C168.039 58.1798 169.412 59.1115 170.981 59.7981C172.6 60.4357 174.267 60.779 176.082 60.779L183.683 65.8303C181.329 66.8601 178.779 67.3506 176.082 67.3506C173.384 67.3506 170.834 66.8111 168.48 65.7812Z" fill="#FBBA3A"/>
<path d="M125.238 66.8111L131.761 60.779H151.378V67.3506H125.238V66.8111ZM125.238 28.1172H151.378V34.6888H131.761L125.238 28.1172ZM125.238 44.4971H131.761H151.378V51.0197H131.761H125.238V44.4971Z" fill="#FBBA3A"/>
<path d="M119.351 63.5743L117.537 61.8088L114.643 58.9154C115.967 57.6403 116.605 56.12 116.605 54.3055V28.1172H123.226V54.3055C123.226 57.8855 121.901 60.9751 119.351 63.5743ZM105.521 58.8663C106.797 60.1414 108.317 60.779 110.082 60.779V67.3506C106.453 67.3506 103.364 66.0755 100.813 63.5743L105.521 58.8663ZM117.537 61.8088L119.351 63.5743L117.537 61.8088Z" fill="#FBBA3A"/>
<path d="M85.229 28.1172C90.6726 28.1172 95.2335 30.0789 99.0588 33.9041C102.933 37.7294 104.895 42.3393 104.895 47.7339C104.895 53.1775 102.933 57.7874 99.0588 61.5636C95.2335 65.3889 90.6726 67.3506 85.229 67.3506C79.7854 67.3506 75.2245 65.3889 71.3992 61.5636C67.574 57.7384 65.6123 53.1775 65.6123 47.7339C65.6123 42.3393 67.574 37.7294 71.3992 33.9041C75.1754 30.0789 79.7854 28.1172 85.229 28.1172ZM85.229 34.6888C81.6489 34.6888 78.5593 35.9148 75.9601 38.514C73.4099 41.0642 72.1839 44.1538 72.1839 47.7339C72.1839 51.3139 73.4099 54.4526 75.9601 57.0028C78.5103 59.5529 81.6489 60.779 85.229 60.779C88.809 60.779 91.8987 59.5529 94.4488 57.0028C97.048 54.4035 98.2741 51.3139 98.2741 47.7339C98.2741 44.1538 96.999 41.0642 94.4488 38.514C91.8987 35.9639 88.809 34.6888 85.229 34.6888Z" fill="#FBBA3A"/>
<path d="M56.258 48.5676C54.7377 50.7745 52.8251 52.3438 50.5201 53.2756L58.5629 67.3506H51.0596L39.6819 47.6848L45.5178 47.7339C47.2833 47.7339 48.8036 47.0963 50.0787 45.8212C51.4028 44.5462 52.0404 42.9768 52.0404 41.1623C52.0404 39.3968 51.4028 37.8765 50.0787 36.6014C48.8036 35.3263 47.2833 34.6888 45.5178 34.6888H32.4237L31.6881 33.9531L28.3042 28.1172H45.5178C49.0979 28.1172 52.1875 29.3923 54.7377 31.9424C57.2879 34.5417 58.5629 37.5822 58.5629 41.1623C58.5629 43.9086 57.8273 46.3607 56.258 48.5676Z" fill="#FBBA3A"/>
<path d="M28.8365 31.9424C31.3867 34.5417 32.6618 37.6313 32.6618 41.2113C32.6618 44.7914 31.4357 47.93 28.8365 50.4802C26.2864 53.0304 23.1967 54.3055 19.6167 54.3055H6.52255V67.3506H0V47.7339H6.52255H19.6167C21.3822 47.7339 22.9025 47.0963 24.1776 45.8212C25.4527 44.5462 26.1392 43.0259 26.1392 41.2113C26.1392 39.4458 25.5017 37.8765 24.1776 36.6014C22.9025 35.3263 21.3822 34.6888 19.6167 34.6888H6.52255L0 28.1172H19.6167C23.1967 28.1172 26.2864 29.3923 28.8365 31.9424Z" fill="#FBBA3A"/>
</svg>
