<?xml version="1.0" encoding="UTF-8"?>
<svg id="Layer_1" data-name="Layer 1" xmlns="http://www.w3.org/2000/svg" width="34.6" height="24.18" viewBox="0 0 34.6 24.18">
  <defs>
    <style>
      .cls-1 {
        fill: #fff;
        stroke-width: 0px;
      }
    </style>
  </defs>
  <path class="cls-1" d="m33.87,3.73c-.41-1.46-1.55-2.6-3.01-3.01C28.17,0,17.31,0,17.31,0,17.31,0,6.49-.01,3.76.72c-1.46.41-2.6,1.55-3.01,3.01C.24,6.49-.01,9.3,0,12.1c0,2.8.24,5.59.75,8.34.41,1.46,1.55,2.6,3.01,3.01,2.69.72,13.55.72,13.55.72,0,0,10.82,0,13.55-.72,1.46-.41,2.6-1.55,3.01-3.01.5-2.75.74-5.54.72-8.34.02-2.81-.22-5.61-.72-8.37Zm-20.04,13.55V6.91l9.03,5.19-9.03,5.18Z"/>
</svg>