<svg width="108" height="111" viewBox="0 0 108 111" fill="none" xmlns="http://www.w3.org/2000/svg">
<path d="M12.2748 53.7403C37.3864 47.2116 61.3837 40.9763 86.2557 34.5119L42.0192 8.97186L46.1441 1.82722L107.495 37.2479C99.5143 39.4835 91.7332 41.7834 83.8842 43.8501C64.7042 48.901 45.5188 53.9319 26.2755 58.727C24.1889 59.2435 21.5968 58.5317 19.4552 57.7847C17.2368 57.0101 15.2764 55.4817 12.2712 53.7466L12.2748 53.7403Z" fill="#FBBA3A"/>
<path d="M95.104 57.9639C71.2327 64.1707 47.3651 70.3713 22.553 76.8197L66.8655 102.404L62.7369 109.554L1.4434 74.1667C2.80323 73.6524 3.8313 73.1575 4.90553 72.8748C30.9165 66.0302 56.9472 59.239 82.9476 52.3544C88.4122 50.9109 91.1616 55.4852 95.2604 57.0501C95.2092 57.358 95.1616 57.6596 95.104 57.9639Z" fill="#FBBA3A"/>
</svg>
