<?xml version="1.0" encoding="UTF-8"?>
<svg id="Layer_1" data-name="Layer 1" xmlns="http://www.w3.org/2000/svg" width="1732" height="691.5" viewBox="0 0 1732 691.5">
  <defs>
    <style>
      .cls-1 {
        stroke-width: .5px;
      }

      .cls-1, .cls-2 {
        fill: none;
        stroke: #f0a31a;
      }

      .cls-1, .cls-2, .cls-3 {
        stroke-miterlimit: 10;
      }

      .cls-2 {
        stroke-width: 3px;
      }

      .cls-4 {
        stroke-width: 0px;
      }

      .cls-4, .cls-3 {
        fill: #050b18;
      }

      .cls-3 {
        stroke: #000;
      }
    </style>
  </defs>
  <polygon class="cls-3" points="1731.5 469.67 1731.5 1.85 1660.15 1.85 1044.91 332.86 173.77 332.86 100.03 373.53 3.9 469.67 1731.5 469.67"/>
  <path class="cls-2" d="m1.5,467c18.3-18.03,36.63-36.03,55-54,13.99-13.69,27.99-27.35,42-41,4.96-2.95,11.41-6.72,19-11,1.84-1.03,9.75-5.48,22-12,8.61-4.58,19.75-10.39,33-17,291.83.17,583.67.33,875.5.5,52-28,102-55,155-84,11-6,22-11,33-17,57-31,111-61,168-91,50-26,96-51,146-78l24-12c31-17,61-33,91-49h67"/>
  <g>
    <path class="cls-1" d="m1399.76,252.88v-87.94h27.9c5.28,0,9.59,1,12.92,2.99,3.33,1.99,5.81,4.87,7.44,8.63,1.63,3.76,2.44,8.32,2.44,13.68,0,6.3-1.07,11.22-3.2,14.76-2.14,3.55-5.05,6.06-8.74,7.55-3.69,1.48-7.93,2.23-12.7,2.23h-8.14v38.11h-17.91Zm17.91-50.7h6.3c2.61,0,4.61-.42,6.03-1.25,1.41-.83,2.37-2.15,2.88-3.96.5-1.81.76-4.12.76-6.95,0-2.68-.2-4.92-.6-6.73-.4-1.81-1.29-3.22-2.66-4.23-1.38-1.01-3.55-1.52-6.51-1.52h-6.19v24.64Z"/>
    <path class="cls-1" d="m1492.25,252.88v-87.94h22.8c5.93,0,11.02.67,15.25,2.01,4.23,1.34,7.49,3.71,9.77,7.11,2.28,3.4,3.42,8.11,3.42,14.11,0,3.62-.31,6.82-.92,9.61-.62,2.79-1.7,5.21-3.26,7.27-1.56,2.06-3.75,3.71-6.57,4.94l12.16,42.88h-18.35l-10.1-39.84h-6.3v39.84h-17.91Zm17.91-50.48h5.21c2.89,0,5.17-.47,6.84-1.41,1.66-.94,2.84-2.37,3.53-4.29.69-1.92,1.03-4.29,1.03-7.11,0-4.05-.74-7.15-2.23-9.28-1.48-2.13-4.25-3.2-8.3-3.2h-6.08v25.29Z"/>
    <path class="cls-1" d="m1611.89,254.07c-6.44,0-11.55-1.16-15.31-3.47-3.76-2.32-6.46-5.63-8.09-9.93-1.63-4.3-2.44-9.46-2.44-15.47v-32.79c0-6.01.81-11.14,2.44-15.42,1.63-4.27,4.32-7.53,8.09-9.77,3.76-2.24,8.86-3.37,15.31-3.37s11.67,1.14,15.47,3.42c3.8,2.28,6.51,5.54,8.14,9.77,1.63,4.23,2.44,9.36,2.44,15.36v32.79c0,6.01-.81,11.17-2.44,15.47-1.63,4.31-4.34,7.62-8.14,9.93s-8.96,3.47-15.47,3.47Zm0-12.92c2.32,0,4.02-.52,5.1-1.57,1.09-1.05,1.81-2.46,2.17-4.23.36-1.77.54-3.67.54-5.7v-41.58c0-2.03-.18-3.91-.54-5.65-.36-1.74-1.09-3.13-2.17-4.18-1.08-1.05-2.79-1.57-5.1-1.57-2.17,0-3.8.53-4.89,1.57-1.09,1.05-1.81,2.44-2.17,4.18-.36,1.74-.54,3.62-.54,5.65v41.58c0,2.03.16,3.93.49,5.7.33,1.77,1.03,3.19,2.12,4.23,1.08,1.05,2.75,1.57,4.99,1.57Z"/>
    <path class="cls-1" d="m1676.38,255.16v-12.59c2.1,0,3.87-.13,5.32-.38,1.45-.25,2.57-.72,3.37-1.41.79-.69,1.37-1.68,1.74-2.99.36-1.3.54-3,.54-5.1v-67.74h17.91v68.5c0,4.85-.58,8.88-1.74,12.1-1.16,3.22-3.2,5.63-6.13,7.22-2.93,1.59-7.04,2.39-12.32,2.39h-8.69Z"/>
  </g>
  <rect class="cls-4" y="467.5" width="1732" height="224"/>
  <g>
    <path class="cls-1" d="m1545.4,321.05v-4.8l8.67-13.33c.65-1,1.25-1.95,1.83-2.86.57-.91,1.04-1.84,1.41-2.79.37-.95.55-1.97.55-3.06,0-1.14-.22-2.02-.66-2.62-.44-.6-1.07-.9-1.89-.9-.88,0-1.56.24-2.02.73-.47.48-.79,1.12-.97,1.91s-.26,1.66-.26,2.6v1.67h-6.64v-1.76c0-2.11.33-3.99.99-5.63s1.7-2.93,3.12-3.85c1.42-.92,3.29-1.39,5.61-1.39,3.14,0,5.5.82,7.08,2.46,1.58,1.64,2.38,3.95,2.38,6.91,0,1.44-.22,2.76-.66,3.98-.44,1.22-1.02,2.39-1.74,3.52-.72,1.13-1.49,2.3-2.31,3.5l-6.86,10.34h10.6v5.37h-18.22Z"/>
    <path class="cls-1" d="m1599.83,321.67c-2.14,0-3.92-.44-5.32-1.32-1.41-.88-2.46-2.09-3.17-3.63-.7-1.54-1.06-3.32-1.06-5.35v-15.97c0-2.08.34-3.91,1.01-5.48s1.72-2.79,3.12-3.67c1.41-.88,3.21-1.32,5.41-1.32s3.95.44,5.35,1.32c1.39.88,2.43,2.1,3.1,3.67s1.01,3.4,1.01,5.48v15.97c0,2.02-.35,3.81-1.06,5.35s-1.76,2.75-3.17,3.63-3.15,1.32-5.24,1.32Zm0-5.98c.79,0,1.36-.25,1.72-.75.35-.5.59-1.09.7-1.78.12-.69.18-1.33.18-1.91v-15.71c0-.65-.05-1.32-.15-2.02-.1-.7-.33-1.31-.68-1.83-.35-.51-.94-.77-1.76-.77s-1.42.26-1.78.77c-.37.51-.6,1.12-.7,1.83-.1.7-.15,1.38-.15,2.02v15.71c0,.59.06,1.22.18,1.91.12.69.37,1.28.75,1.78.38.5.95.75,1.72.75Z"/>
    <path class="cls-1" d="m1635.56,321.05v-4.8l8.67-13.33c.65-1,1.25-1.95,1.83-2.86.57-.91,1.04-1.84,1.41-2.79.37-.95.55-1.97.55-3.06,0-1.14-.22-2.02-.66-2.62-.44-.6-1.07-.9-1.89-.9-.88,0-1.56.24-2.02.73-.47.48-.79,1.12-.97,1.91s-.26,1.66-.26,2.6v1.67h-6.64v-1.76c0-2.11.33-3.99.99-5.63s1.7-2.93,3.12-3.85c1.42-.92,3.29-1.39,5.61-1.39,3.14,0,5.5.82,7.08,2.46,1.58,1.64,2.38,3.95,2.38,6.91,0,1.44-.22,2.76-.66,3.98-.44,1.22-1.02,2.39-1.74,3.52-.72,1.13-1.49,2.3-2.31,3.5l-6.86,10.34h10.6v5.37h-18.22Z"/>
    <path class="cls-1" d="m1689.41,321.05v-8.32h-10.82v-5.32l9.28-22h7.92v22.13h3.43v5.19h-3.43v8.32h-6.38Zm-5.46-13.51h5.46v-15.14l-5.46,15.14Z"/>
  </g>
</svg>